<svg xmlns="http://www.w3.org/2000/svg" viewBox="0 0 145.53 52.46"><defs><style>.cls-1{fill:#512461;}.cls-2{fill:#fff;}</style></defs><title>ikone-horizontal-color-3</title><g id="Camada_2" data-name="Camada 2"><g id="Camada_1-2" data-name="Camada 1"><path class="cls-1" d="M57.8,52.46V43h7.32v9.44Z"/><path class="cls-2" d="M7.55,32.42H0V4H7.55Z"/><path class="cls-2" d="M54,44.48H42.74L27.59,29.27l-4.51,4.51v10.7H14.66V4h8.42V23.14l7.06-7.06H41.38L33.56,23.9,54,44.33Z"/><path class="cls-2" d="M47.56,23.48A13.82,13.82,0,1,1,61.31,37.3,13.76,13.76,0,0,1,47.56,23.48Zm7,0a7.27,7.27,0,0,0,6.87,7.27,7.08,7.08,0,0,0,6.81-7.27,7.08,7.08,0,0,0-6.81-7.27A7.18,7.18,0,0,0,54.57,23.48Z"/><path class="cls-2" d="M116.1,10V41.93L87.31,18V52.46H78.89V0l28.79,24.17V10Z"/><path class="cls-2" d="M120.44,44.48V4h18.24v7.6h-9.82v7.55h15.2v7.61h-15.2v10.1h16.67v7.6Z"/></g></g></svg>