<svg xmlns="http://www.w3.org/2000/svg" width="695.98" height="219.124" viewBox="0 0 695.98 219.124">
  <g id="Camada_1" data-name="Camada 1" transform="translate(0 0.002)">
    <path id="Caminho_79" data-name="Caminho 79" d="M109.53,38.47a9.23,9.23,0,1,1-7.87-14.16,9,9,0,0,1,7.73,4.35l-2.9,2.06a5.73,5.73,0,0,0-4.8-2.85,5.52,5.52,0,0,0-5.38,5.71,5.52,5.52,0,0,0,5.38,5.69,6,6,0,0,0,5-2.86Z" transform="translate(-4.54 -4.87)" fill="#512461"/>
    <path id="Caminho_80" data-name="Caminho 80" d="M110.49,33.55a9.23,9.23,0,1,1,2.7,6.567A9.26,9.26,0,0,1,110.49,33.55Zm3.82,0a5.44,5.44,0,1,0,5.42-5.68,5.52,5.52,0,0,0-5.42,5.68Z" transform="translate(-4.54 -4.87)" fill="#512461"/>
    <path id="Caminho_81" data-name="Caminho 81" d="M144.38,24.62h3.72v18.2L135.38,32.23V42.51h-3.72V24.29L144.38,35Z" transform="translate(-4.54 -4.87)" fill="#512461"/>
    <path id="Caminho_82" data-name="Caminho 82" d="M151.51,42.51V24.62H161V28h-5.78v3.34H162V34.7h-6.72v7.83Z" transform="translate(-4.54 -4.87)" fill="#512461"/>
    <path id="Caminho_83" data-name="Caminho 83" d="M168.09,42.51h-3.72V24.62h3.72Z" transform="translate(-4.54 -4.87)" fill="#512461"/>
    <path id="Caminho_84" data-name="Caminho 84" d="M183.31,40.11h-8.66l-1.16,2.4h-3.84l9.44-18.2,9.45,18.2h-4Zm-7.06-3.36h5.43l-2.74-5.57Z" transform="translate(-4.54 -4.87)" fill="#512461"/>
    <path id="Caminho_85" data-name="Caminho 85" d="M190.1,42.51V24.62h5.74c3.31,0,5.69,1.4,5.69,4.73a3.86,3.86,0,0,1-1.28,3,5.18,5.18,0,0,1,2.43,4.37c0,3.64-3.05,5.76-6.34,5.76Zm5.59-11.21c1.8,0,2-.91,2-1.66,0-1.37-1-1.66-2-1.66h-1.87V31.3Zm.77,7.85a2.31,2.31,0,1,0,0-4.61h-2.64v4.61Z" transform="translate(-4.54 -4.87)" fill="#512461"/>
    <path id="Caminho_86" data-name="Caminho 86" d="M209.06,42.51h-3.72V24.62h3.72Z" transform="translate(-4.54 -4.87)" fill="#512461"/>
    <path id="Caminho_87" data-name="Caminho 87" d="M216.19,24.62V39.15h7.2v3.36H212.47V24.62Z" transform="translate(-4.54 -4.87)" fill="#512461"/>
    <path id="Caminho_88" data-name="Caminho 88" d="M229.17,42.51h-3.72V24.62h3.72Z" transform="translate(-4.54 -4.87)" fill="#512461"/>
    <path id="Caminho_89" data-name="Caminho 89" d="M239.83,24.62a9,9,0,1,1,0,17.89h-7.27V24.62Zm0,14.53a5.59,5.59,0,0,0,0-11.17H236.3V39.15Z" transform="translate(-4.54 -4.87)" fill="#512461"/>
    <path id="Caminho_90" data-name="Caminho 90" d="M262,40.11h-8.66l-1.16,2.4h-3.84l9.44-18.2,9.45,18.2h-4Zm-7.06-3.36h5.43l-2.74-5.57Z" transform="translate(-4.54 -4.87)" fill="#512461"/>
    <path id="Caminho_91" data-name="Caminho 91" d="M276,24.62a9,9,0,1,1,0,17.89h-7.27V24.62Zm0,14.53A5.59,5.59,0,0,0,276,28h-3.53V39.15Z" transform="translate(-4.54 -4.87)" fill="#512461"/>
    <path id="Caminho_92" data-name="Caminho 92" d="M288,42.51V24.62h9.51V28h-5.79v3.34h6.72V34.7h-6.72v4.47h7.37v3.36Z" transform="translate(-4.54 -4.87)" fill="#512461"/>
    <path id="Caminho_93" data-name="Caminho 93" d="M14.46,79.36,37,56.83H50.24L26.81,80.25,51,104.51H37.63L19.77,86.59,14.46,91.9v12.61H4.54V56.83h9.92Z" transform="translate(-4.54 -4.87)" fill="#e85624"/>
    <path id="Caminho_94" data-name="Caminho 94" d="M89.08,56.83H99v48.51L65.09,77.12v27.39H55.17V55.93L89.08,84.41Z" transform="translate(-4.54 -4.87)" fill="#e85624"/>
    <path id="Caminho_95" data-name="Caminho 95" d="M106.11,80.64a24.61,24.61,0,1,1,7.208,17.492A24.67,24.67,0,0,1,106.11,80.64Zm10.18,0c0,8.51,6.33,15.16,14.52,15.16s14.47-6.65,14.47-15.16-6.47-15.17-14.53-15.17S116.29,72.25,116.29,80.64Z" transform="translate(-4.54 -4.87)" fill="#e85624"/>
    <path id="Caminho_96" data-name="Caminho 96" d="M212.22,56.83h10.3l-24.25,48.51L187.84,85.69,178,105.34,152.58,56.83H164l14.46,28,4.48-8.64L172.8,56.83h11.39l14.46,28Z" transform="translate(-4.54 -4.87)" fill="#e85624"/>
    <path id="Caminho_97" data-name="Caminho 97" d="M263,56.83V74.69h21.89V56.83h9.92v47.68h-9.92V83.64H263v20.87h-9.92V56.83Z" transform="translate(-4.54 -4.87)" fill="#e85624"/>
    <path id="Caminho_98" data-name="Caminho 98" d="M301.88,80.64a24.61,24.61,0,1,1,7.211,17.5,24.68,24.68,0,0,1-7.211-17.5Zm10.18,0c0,8.51,6.34,15.16,14.53,15.16s14.46-6.65,14.46-15.16-6.46-15.17-14.53-15.17S312.06,72.25,312.06,80.64Z" transform="translate(-4.54 -4.87)" fill="#e85624"/>
    <path id="Caminho_99" data-name="Caminho 99" d="M408,56.83h10.3L394,105.34,383.61,85.69l-9.79,19.65L348.35,56.83h11.39l14.46,28,4.48-8.64L368.57,56.83H380l14.47,28Z" transform="translate(-4.54 -4.87)" fill="#e85624"/>
    <path id="Caminho_100" data-name="Caminho 100" d="M475.74,152.51V134.62H482a7.17,7.17,0,0,1,7.42,7,7.34,7.34,0,0,1-7.78,7.75h-2.13v3.1Zm5.76-6.46a3.79,3.79,0,0,0,4.13-4.1,3.69,3.69,0,0,0-3.92-4h-2.25v8.07Z" transform="translate(-4.54 -4.87)" fill="#e85624"/>
    <path id="Caminho_101" data-name="Caminho 101" d="M495.66,149.41v3.1h-3.72V134.62h6.21a7.17,7.17,0,0,1,7.42,7,7,7,0,0,1-4,6.72l3.86,4.13h-4.94l-2.93-3.1Zm2-3.36a3.79,3.79,0,0,0,4.13-4.1,3.69,3.69,0,0,0-3.92-4h-2.25v8.07Z" transform="translate(-4.54 -4.87)" fill="#e85624"/>
    <path id="Caminho_102" data-name="Caminho 102" d="M508.14,152.51V134.62h9.5V138h-5.78v3.34h6.72v3.36h-6.72v4.47h7.37v3.36Z" transform="translate(-4.54 -4.87)" fill="#e85624"/>
    <path id="Caminho_103" data-name="Caminho 103" d="M538.19,148.47a9.24,9.24,0,1,1-7.88-14.16,9,9,0,0,1,7.73,4.35l-2.9,2.06a5.535,5.535,0,1,0-4.8,8.55,6,6,0,0,0,5-2.86Z" transform="translate(-4.54 -4.87)" fill="#e85624"/>
    <path id="Caminho_104" data-name="Caminho 104" d="M544.11,152.51h-3.72V134.62h3.72Z" transform="translate(-4.54 -4.87)" fill="#e85624"/>
    <path id="Caminho_105" data-name="Caminho 105" d="M546.7,139.47a5.38,5.38,0,0,1,5.26-5.16,6.07,6.07,0,0,1,4.83,2.31l-2.93,2.13a3,3,0,0,0-1.9-.88,1.52,1.52,0,0,0-1.66,1.58c0,.82.6,1.56,2.5,1.68a5.59,5.59,0,0,1,5.57,5.71,6,6,0,0,1-6,6,7.61,7.61,0,0,1-5.78-2.62l3.07-2.25a3.08,3.08,0,0,0,2.71,1.29,2.16,2.16,0,0,0,2.18-2.13c0-1.44-1-2.33-2.68-2.52C548.72,144.23,546.7,142.28,546.7,139.47Z" transform="translate(-4.54 -4.87)" fill="#e85624"/>
    <path id="Caminho_106" data-name="Caminho 106" d="M572.07,150.11h-8.66l-1.15,2.4h-3.84l9.43-18.2,9.46,18.2h-4.06Zm-9.4-18.89a4.49,4.49,0,0,1,3.81-1.9c1.32,0,2.21.86,3.29.86a2,2,0,0,0,1.42-.86l2.4,1.73a4.49,4.49,0,0,1-3.44,2.06c-1.32,0-2-1-3.16-1a2.76,2.76,0,0,0-2,.86ZM565,146.75h5.42l-2.73-5.57Z" transform="translate(-4.54 -4.87)" fill="#e85624"/>
    <path id="Caminho_107" data-name="Caminho 107" d="M576.68,143.55a9.23,9.23,0,1,1,2.7,6.567,9.26,9.26,0,0,1-2.7-6.567Zm3.82,0a5.44,5.44,0,1,0,2.648-4.905A5.44,5.44,0,0,0,580.5,143.55Z" transform="translate(-4.54 -4.87)" fill="#e85624"/>
    <path id="Caminho_108" data-name="Caminho 108" d="M143.29,144.44a18.47,18.47,0,1,1-15.75-28.32A18.06,18.06,0,0,1,143,124.81l-5.81,4.13a11.45,11.45,0,0,0-9.6-5.72c-6,0-10.75,5.09-10.75,11.43S121.59,146,127.59,146c3.7,0,7.35-1.88,9.94-5.72Z" transform="translate(-4.54 -4.87)" fill="#512461"/>
    <path id="Caminho_109" data-name="Caminho 109" d="M155.14,146.31v6.2H147.7V116.74h12.44c8.4,0,14.83,6.29,14.83,14.07,0,6.43-3.07,11.14-8.07,13.44l7.73,8.26h-9.89l-5.85-6.2Zm4.08-6.72c5.28,0,8.26-3.21,8.26-8.21,0-4.36-2.64-7.92-7.82-7.92h-4.52v16.13Z" transform="translate(-4.54 -4.87)" fill="#512461"/>
    <path id="Caminho_110" data-name="Caminho 110" d="M187.54,152.51H180.1V116.74h7.44Z" transform="translate(-4.54 -4.87)" fill="#512461"/>
    <path id="Caminho_111" data-name="Caminho 111" d="M218,147.71H200.65l-2.31,4.8h-7.68l18.87-36.39,18.91,36.39h-8.11ZM203.86,141h10.85l-5.47-11.14Z" transform="translate(-4.54 -4.87)" fill="#512461"/>
    <path id="Caminho_112" data-name="Caminho 112" d="M231.61,152.51v-29h-8.84v-6.72h25.69v6.72h-9.41v29.05Z" transform="translate(-4.54 -4.87)" fill="#512461"/>
    <path id="Caminho_113" data-name="Caminho 113" d="M260.21,152.51h-7.44V116.74h7.44Z" transform="translate(-4.54 -4.87)" fill="#512461"/>
    <path id="Caminho_114" data-name="Caminho 114" d="M292.66,116.74h7.68l-18.19,36.39L263,116.74h8.55l10.85,21Z" transform="translate(-4.54 -4.87)" fill="#512461"/>
    <path id="Caminho_115" data-name="Caminho 115" d="M309.94,152.51H302.5V116.74h7.44Z" transform="translate(-4.54 -4.87)" fill="#512461"/>
    <path id="Caminho_116" data-name="Caminho 116" d="M331.25,116.74c10.33,0,18.73,7.68,18.73,17.86s-8.4,17.91-18.68,17.91H316.76V116.74Zm.05,29.05a11.17,11.17,0,0,0-.05-22.33H324.2v22.33Z" transform="translate(-4.54 -4.87)" fill="#512461"/>
    <path id="Caminho_117" data-name="Caminho 117" d="M375.56,147.71H358.23l-2.3,4.8h-7.68l18.86-36.39L386,152.51h-8.11ZM361.45,141h10.84l-5.47-11.14Z" transform="translate(-4.54 -4.87)" fill="#512461"/>
    <path id="Caminho_118" data-name="Caminho 118" d="M403.64,116.74c10.32,0,18.72,7.68,18.72,17.86s-8.4,17.91-18.67,17.91H389.14V116.74Zm.05,29.05a11.17,11.17,0,0,0-.05-22.33h-7.06v22.33Z" transform="translate(-4.54 -4.87)" fill="#512461"/>
    <path id="Caminho_119" data-name="Caminho 119" d="M427.68,152.51V116.74h19v6.72H435.12v6.68h13.45v6.72H435.12v8.93h14.74v6.72Z" transform="translate(-4.54 -4.87)" fill="#512461"/>
    <path id="Caminho_120" data-name="Caminho 120" d="M436.83,104.51h-7.75V67.28h7.75Z" transform="translate(-4.54 -4.87)" fill="#512461"/>
    <path id="Caminho_121" data-name="Caminho 121" d="M470.41,67.28h7.74v37.88l-26.48-22v21.39h-7.75V66.58l26.49,22.24Z" transform="translate(-4.54 -4.87)" fill="#512461"/>
    <path id="Caminho_122" data-name="Caminho 122" d="M483.7,85.87a19.22,19.22,0,1,1,5.633,13.664A19.27,19.27,0,0,1,483.7,85.87Zm7.95,0c0,6.64,4.94,11.84,11.34,11.84s11.29-5.2,11.29-11.84A11.58,11.58,0,0,0,502.94,74c-6.35,0-11.29,5.32-11.29,11.87Z" transform="translate(-4.54 -4.87)" fill="#512461"/>
    <path id="Caminho_123" data-name="Caminho 123" d="M551,67.28h8l-19,37.88L520.13,67.28H529l11.29,21.84Z" transform="translate(-4.54 -4.87)" fill="#512461"/>
    <path id="Caminho_124" data-name="Caminho 124" d="M579,99.51H561l-2.4,5h-8l19.64-37.88,19.68,37.88h-8.44Zm-14.69-7H575.6l-5.7-11.59Z" transform="translate(-4.54 -4.87)" fill="#512461"/>
    <path id="Caminho_125" data-name="Caminho 125" d="M624.08,96.11A19.13,19.13,0,0,1,610,105l-.95,1.25h7.4v6H598.29l5.05-7.64a19.29,19.29,0,0,1,4.34-38,18.81,18.81,0,0,1,16.1,9l-6,4.3c-2.55-4-6.3-6-10-6-6.24,0-11.19,5.3-11.19,11.9s5,11.84,11.19,11.84c3.85,0,7.65-2,10.35-6Z" transform="translate(-4.54 -4.87)" fill="#512461"/>
    <path id="Caminho_126" data-name="Caminho 126" d="M652.36,99.51h-18l-2.4,5h-8L643.6,66.63l19.68,37.88h-8.44ZM632.77,60.18a9.38,9.38,0,0,1,8-4c2.74,0,4.59,1.8,6.84,1.8a4.16,4.16,0,0,0,3-1.8l5,3.6c-1.7,2.25-4.1,4.3-7.15,4.3-2.75,0-4.25-2-6.59-2-1.6,0-2.45.5-4,1.8Zm4.9,32.33H649l-5.7-11.59Z" transform="translate(-4.54 -4.87)" fill="#512461"/>
    <path id="Caminho_127" data-name="Caminho 127" d="M662,85.87a19.21,19.21,0,1,1,5.626,13.664A19.26,19.26,0,0,1,662,85.87Zm7.94,0c0,6.64,5,11.84,11.35,11.84s11.29-5.2,11.29-11.84A11.58,11.58,0,0,0,681.2,74c-6.35,0-11.3,5.32-11.3,11.87Z" transform="translate(-4.54 -4.87)" fill="#512461"/>
    <path id="Caminho_128" data-name="Caminho 128" d="M336.82,32.86H321.46l-2,4.25h-6.81L329.33,4.87l16.76,32.24H338.9Zm-12.51-6h9.61L329.07,17Z" transform="translate(-4.54 -4.87)" fill="#e85624"/>
    <path id="Caminho_129" data-name="Caminho 129" d="M377.7,20.78a16.62,16.62,0,0,1-16.43,16.89,16.4,16.4,0,1,1,14-25.1L370,16.39a9.87,9.87,0,0,0-8.68-5.23c-5.31,0-9.52,4.51-9.52,10.13a9.74,9.74,0,0,0,9.52,10A9,9,0,0,0,370,25.67h-8.6V19.8h16.3Z" transform="translate(-4.54 -4.87)" fill="#e85624"/>
    <path id="Caminho_130" data-name="Caminho 130" d="M388.92,37.11h-6.59V5.42h6.59Z" transform="translate(-4.54 -4.87)" fill="#e85624"/>
    <path id="Caminho_131" data-name="Caminho 131" d="M401.55,5.42V31.16h12.77v5.95H395V5.42Z" transform="translate(-4.54 -4.87)" fill="#e85624"/>
    <path id="Caminho_132" data-name="Caminho 132" d="M424.56,37.11H418V5.42h6.59Z" transform="translate(-4.54 -4.87)" fill="#e85624"/>
    <path id="Caminho_133" data-name="Caminho 133" d="M443.45,5.42c9.15,0,16.59,6.81,16.59,15.82s-7.44,15.87-16.55,15.87H430.6V5.42Zm0,25.74a9.67,9.67,0,0,0,9.79-9.92,9.61,9.61,0,0,0-9.83-9.87H437.2V31.16Z" transform="translate(-4.54 -4.87)" fill="#e85624"/>
    <path id="Caminho_134" data-name="Caminho 134" d="M482.71,32.86H467.36l-2.05,4.25h-6.8L475.23,4.87,492,37.11h-7.2Zm-12.5-6h9.61L475,17Z" transform="translate(-4.54 -4.87)" fill="#e85624"/>
    <path id="Caminho_135" data-name="Caminho 135" d="M507.6,5.42c9.14,0,16.59,6.81,16.59,15.82s-7.45,15.87-16.55,15.87H494.75V5.42Zm0,25.74a9.66,9.66,0,0,0,9.78-9.92,9.6,9.6,0,0,0-9.82-9.87H501.3V31.16Z" transform="translate(-4.54 -4.87)" fill="#e85624"/>
    <path id="Caminho_136" data-name="Caminho 136" d="M528.9,37.11V5.42h16.85v5.95H535.5v5.92h11.91v5.95H535.5v7.92h13.06v5.95Z" transform="translate(-4.54 -4.87)" fill="#e85624"/>
    <path id="Caminho_137" data-name="Caminho 137" d="M294.81,209.06V176.44h17.34v6.13H301.6v6.08h12.26v6.14H301.6v8.14H315v6.13Z" transform="translate(-4.54 -4.87)" fill="#512461"/>
    <path id="Caminho_138" data-name="Caminho 138" d="M318.41,185.28c0-5.52,5.08-9.41,9.59-9.41a11.1,11.1,0,0,1,8.81,4.2l-5.35,3.9a5.31,5.31,0,0,0-3.46-1.62,2.77,2.77,0,0,0-3,2.89c0,1.49,1.1,2.84,4.56,3.06,5.56.35,10.16,4.12,10.16,10.43a11,11,0,0,1-11,10.9,13.88,13.88,0,0,1-10.55-4.77l5.6-4.12a5.66,5.66,0,0,0,5,2.37,4,4,0,0,0,4-3.9c0-2.63-1.75-4.25-4.9-4.6C322.09,194,318.41,190.41,318.41,185.28Z" transform="translate(-4.54 -4.87)" fill="#512461"/>
    <path id="Caminho_139" data-name="Caminho 139" d="M347.71,209.06V182.57h-8.06v-6.13h23.43v6.13H354.5v26.49Z" transform="translate(-4.54 -4.87)" fill="#512461"/>
    <path id="Caminho_140" data-name="Caminho 140" d="M373.81,203.41v5.65H367V176.44h11.34c7.66,0,13.53,5.73,13.53,12.83,0,5.87-2.8,10.16-7.35,12.26l7,7.53h-9l-5.34-5.65Zm3.72-6.13c4.82,0,7.53-2.93,7.53-7.49,0-4-2.41-7.22-7.14-7.22h-4.11v14.71Z" transform="translate(-4.54 -4.87)" fill="#512461"/>
    <path id="Caminho_141" data-name="Caminho 141" d="M417.51,204.68H401.7l-2.1,4.38h-7l17.21-33.19,17.26,33.19h-7.41Zm-12.88-6.13h9.9l-5-10.16Z" transform="translate(-4.54 -4.87)" fill="#512461"/>
    <path id="Caminho_142" data-name="Caminho 142" d="M429.94,209.06V182.57h-8.05v-6.13h23.43v6.13h-8.59v26.49Z" transform="translate(-4.54 -4.87)" fill="#512461"/>
    <path id="Caminho_143" data-name="Caminho 143" d="M449.25,209.06V176.44H466.6v6.13H456v6.08h12.3v6.14H456v8.14h13.45v6.13Zm15.38-40.59-3.42,5.21h-5.87l5.21-8.15Z" transform="translate(-4.54 -4.87)" fill="#512461"/>
    <path id="Caminho_144" data-name="Caminho 144" d="M506.67,192.25a17.11,17.11,0,0,1-16.91,17.38,16.88,16.88,0,1,1,14.37-25.84l-5.43,3.94a10.16,10.16,0,0,0-8.94-5.38c-5.47,0-9.81,4.64-9.81,10.42a10,10,0,0,0,9.81,10.34,9.29,9.29,0,0,0,9-5.83h-8.84v-6h16.73Z" transform="translate(-4.54 -4.87)" fill="#512461"/>
    <path id="Caminho_145" data-name="Caminho 145" d="M518.22,209.06h-6.78V176.44h6.78Z" transform="translate(-4.54 -4.87)" fill="#512461"/>
    <path id="Caminho_146" data-name="Caminho 146" d="M546,204.68H530.18l-2.1,4.38h-7l17.21-33.19,17.25,33.19h-7.4Zm-12.88-6.13H543l-5-10.16Z" transform="translate(-4.54 -4.87)" fill="#512461"/>
    <path id="Caminho_147" data-name="Caminho 147" d="M47.62,223.07V162.68h32.1V174H60.19v11.3H82.88v11.35H60.19v15.07H85.07v11.35Zm28.45-75.14-6.32,9.65H58.89l9.64-15.08Z" transform="translate(-4.54 -4.87)" fill="#e85624"/>
    <path id="Caminho_148" data-name="Caminho 148" d="M102.74,223.07V174H87.83V162.68h43.36V174H115.3v49Z" transform="translate(-4.54 -4.87)" fill="#e85624"/>
    <path id="Caminho_149" data-name="Caminho 149" d="M151.05,223.07H138.49V162.68h12.56Z" transform="translate(-4.54 -4.87)" fill="#e85624"/>
    <path id="Caminho_150" data-name="Caminho 150" d="M217.6,209.45A31.18,31.18,0,1,1,191,161.63a30.48,30.48,0,0,1,26.1,14.67l-9.81,7c-4.13-6.48-10.21-9.64-16.21-9.64-10.13,0-18.15,8.59-18.15,19.29s8,19.21,18.15,19.21c6.24,0,12.4-3.16,16.78-9.65Z" transform="translate(-4.54 -4.87)" fill="#e85624"/>
    <path id="Caminho_151" data-name="Caminho 151" d="M263.48,215H234.22l-3.89,8.11h-13l31.85-61.44,31.94,61.44h-13.7Zm-23.83-11.34H258l-9.24-18.81Z" transform="translate(-4.54 -4.87)" fill="#e85624"/>
  </g>
</svg>
