<svg id="logo" xmlns="http://www.w3.org/2000/svg" width="153.15" height="55.21" viewBox="0 0 153.15 55.21">
  <g id="Camada_1" data-name="Camada 1">
    <path id="Caminho_1" data-name="Caminho 1" d="M60.83,55.21V45.28h7.7v9.93Z" fill="#512461"/>
    <path id="Caminho_2" data-name="Caminho 2" d="M7.94,34.12H0V4.23H7.94Z" fill="#e85624"/>
    <path id="Caminho_3" data-name="Caminho 3" d="M56.87,46.81H45l-16-16-4.74,4.74V46.81H15.43V4.23h8.86V24.35l7.43-7.43H43.55l-8.23,8.23,21.45,21.5Z" fill="#e85624"/>
    <path id="Caminho_4" data-name="Caminho 4" d="M50.05,24.71a14.49,14.49,0,1,1,4.219,10.271A14.54,14.54,0,0,1,50.05,24.71Zm7.37,0c0,4.11,3.41,7.65,7.24,7.65a7.44,7.44,0,0,0,7.16-7.65,7.45,7.45,0,0,0-7.16-7.65A7.56,7.56,0,0,0,57.42,24.71Z" fill="#e85624"/>
    <path id="Caminho_5" data-name="Caminho 5" d="M122.17,10.53V44.12L91.88,18.92V55.21H83V0l30.29,25.43V10.53Z" fill="#e85624"/>
    <path id="Caminho_6" data-name="Caminho 6" d="M126.74,46.81V4.23h19.2v8H135.6v8h16v8h-16V38.81h17.55v8Z" fill="#e85624"/>
  </g>
</svg>
