<svg xmlns="http://www.w3.org/2000/svg" width="13" height="16.66" viewBox="0 0 13 16.66">
  <g id="arrow" transform="translate(-84.833 16.16) rotate(-90)">
    <g id="Grupo_8" data-name="Grupo 8" transform="translate(0 85.333)">
      <path id="Caminho_10" data-name="Caminho 10" d="M15.526,91.068l-4.882-5.625a.3.3,0,0,0-.46,0,.416.416,0,0,0,0,.53l4.326,4.985H.325a.379.379,0,0,0,0,.75H14.51l-4.326,4.985a.416.416,0,0,0,0,.53.3.3,0,0,0,.46,0L15.526,91.6A.416.416,0,0,0,15.526,91.068Z" transform="translate(0 -85.333)" fill="#e85624" stroke="#e85624" stroke-width="1"/>
    </g>
  </g>
</svg>
