<svg xmlns="http://www.w3.org/2000/svg" width="18.2" height="18.2" viewBox="0 0 18.2 18.2">
  <path id="calendar004_-_E144" data-name="calendar004 - E144" d="M7.42-20.3H4.34V-21a.693.693,0,0,0-.7-.7.693.693,0,0,0-.7.7v.7H-2.94V-21a.693.693,0,0,0-.7-.7.693.693,0,0,0-.7.7v.7H-7.42A1.685,1.685,0,0,0-9.1-18.62V-5.18A1.685,1.685,0,0,0-7.42-3.5H7.42A1.685,1.685,0,0,0,9.1-5.18V-18.62A1.685,1.685,0,0,0,7.42-20.3ZM-7.42-18.9h3.08v.7a.693.693,0,0,0,.7.7.693.693,0,0,0,.7-.7v-.7H2.94v.7a.693.693,0,0,0,.7.7.693.693,0,0,0,.7-.7v-.7H7.42a.281.281,0,0,1,.28.28v2.2H-7.7v-2.2A.281.281,0,0,1-7.42-18.9ZM7.42-4.9H-7.42a.281.281,0,0,1-.28-.28v-9.842H7.7V-5.18A.281.281,0,0,1,7.42-4.9ZM-2.1-13.048a.974.974,0,0,0-.98-.98.974.974,0,0,0-.98.98.974.974,0,0,0,.98.98A.974.974,0,0,0-2.1-13.048Zm3.08,0a.974.974,0,0,0-.98-.98.974.974,0,0,0-.98.98.974.974,0,0,0,.98.98A.974.974,0,0,0,.98-13.048Zm3.08.014a.974.974,0,0,0-.98-.98.974.974,0,0,0-.98.98.974.974,0,0,0,.98.98A.974.974,0,0,0,4.06-13.034Zm3.08,0a.974.974,0,0,0-.98-.98.974.974,0,0,0-.98.98.974.974,0,0,0,.98.98A.974.974,0,0,0,7.14-13.034ZM-2.1-9.968a.974.974,0,0,0-.98-.98.974.974,0,0,0-.98.98.974.974,0,0,0,.98.98A.974.974,0,0,0-2.1-9.968Zm-3.08.014a.974.974,0,0,0-.98-.98.974.974,0,0,0-.98.98.974.974,0,0,0,.98.98A.974.974,0,0,0-5.18-9.954Zm6.16,0a.974.974,0,0,0-.98-.98.974.974,0,0,0-.98.98.974.974,0,0,0,.98.98A.974.974,0,0,0,.98-9.954Zm3.08,0a.974.974,0,0,0-.98-.98.974.974,0,0,0-.98.98.974.974,0,0,0,.98.98A.974.974,0,0,0,4.06-9.954Zm3.08,0a.974.974,0,0,0-.98-.98.974.974,0,0,0-.98.98.974.974,0,0,0,.98.98A.974.974,0,0,0,7.14-9.954ZM-2.1-6.888a.974.974,0,0,0-.98-.98.974.974,0,0,0-.98.98.974.974,0,0,0,.98.98A.974.974,0,0,0-2.1-6.888Zm-3.08.014a.974.974,0,0,0-.98-.98.974.974,0,0,0-.98.98.974.974,0,0,0,.98.98A.974.974,0,0,0-5.18-6.874Zm6.16,0A.974.974,0,0,0,0-7.854a.974.974,0,0,0-.98.98.974.974,0,0,0,.98.98A.974.974,0,0,0,.98-6.874Z" transform="translate(9.1 21.7)" fill="#512461"/>
</svg>
