<svg xmlns="http://www.w3.org/2000/svg" width="53.034" height="64.041" viewBox="0 0 53.034 64.041">
  <g id="checklist" transform="translate(-44.001)">
    <g id="Grupo_79" data-name="Grupo 79" transform="translate(69.267 19.012)">
      <g id="Grupo_78" data-name="Grupo 78">
        <path id="Caminho_54" data-name="Caminho 54" d="M265.264,152H247.252a1.251,1.251,0,0,0,0,2.5h18.012a1.251,1.251,0,0,0,0-2.5Z" transform="translate(-246.001 -152)" fill="#fff"/>
      </g>
    </g>
    <g id="Grupo_81" data-name="Grupo 81" transform="translate(82.018 25.016)">
      <g id="Grupo_80" data-name="Grupo 80">
        <path id="Caminho_55" data-name="Caminho 55" d="M350.076,200.367a1.25,1.25,0,1,0,.366.884A1.26,1.26,0,0,0,350.076,200.367Z" transform="translate(-347.941 -200.001)" fill="#fff"/>
      </g>
    </g>
    <g id="Grupo_83" data-name="Grupo 83" transform="translate(69.266 5.379)">
      <g id="Grupo_82" data-name="Grupo 82">
        <path id="Caminho_56" data-name="Caminho 56" d="M248.126,43.367a1.25,1.25,0,1,0,.366.884A1.26,1.26,0,0,0,248.126,43.367Z" transform="translate(-245.991 -43.001)" fill="#fff"/>
      </g>
    </g>
    <g id="Grupo_85" data-name="Grupo 85" transform="translate(69.267 25.016)">
      <g id="Grupo_84" data-name="Grupo 84" transform="translate(0)">
        <path id="Caminho_57" data-name="Caminho 57" d="M254.741,200h-7.489a1.251,1.251,0,1,0,0,2.5h7.489a1.251,1.251,0,1,0,0-2.5Z" transform="translate(-246.001 -200)" fill="#fff"/>
      </g>
    </g>
    <g id="Grupo_87" data-name="Grupo 87" transform="translate(69.267 32.521)">
      <g id="Grupo_86" data-name="Grupo 86">
        <path id="Caminho_58" data-name="Caminho 58" d="M265.264,260H247.252a1.251,1.251,0,1,0,0,2.5h18.012a1.251,1.251,0,0,0,0-2.5Z" transform="translate(-246.001 -260)" fill="#fff"/>
      </g>
    </g>
    <g id="Grupo_89" data-name="Grupo 89" transform="translate(82.018 38.525)">
      <g id="Grupo_88" data-name="Grupo 88">
        <path id="Caminho_59" data-name="Caminho 59" d="M350.076,308.367a1.25,1.25,0,1,0,.366.884A1.26,1.26,0,0,0,350.076,308.367Z" transform="translate(-347.941 -308.001)" fill="#fff"/>
      </g>
    </g>
    <g id="Grupo_91" data-name="Grupo 91" transform="translate(69.267 38.525)">
      <g id="Grupo_90" data-name="Grupo 90" transform="translate(0)">
        <path id="Caminho_60" data-name="Caminho 60" d="M254.741,308h-7.489a1.251,1.251,0,1,0,0,2.5h7.489a1.251,1.251,0,1,0,0-2.5Z" transform="translate(-246.001 -308)" fill="#fff"/>
      </g>
    </g>
    <g id="Grupo_93" data-name="Grupo 93" transform="translate(69.267 46.029)">
      <g id="Grupo_92" data-name="Grupo 92">
        <path id="Caminho_61" data-name="Caminho 61" d="M265.264,368H247.252a1.251,1.251,0,0,0,0,2.5h18.012a1.251,1.251,0,0,0,0-2.5Z" transform="translate(-246.001 -368)" fill="#fff"/>
      </g>
    </g>
    <g id="Grupo_95" data-name="Grupo 95" transform="translate(82.018 52.033)">
      <g id="Grupo_94" data-name="Grupo 94">
        <path id="Caminho_62" data-name="Caminho 62" d="M350.076,416.367a1.25,1.25,0,1,0,.366.884A1.26,1.26,0,0,0,350.076,416.367Z" transform="translate(-347.941 -416.001)" fill="#fff"/>
      </g>
    </g>
    <g id="Grupo_97" data-name="Grupo 97" transform="translate(69.267 52.033)">
      <g id="Grupo_96" data-name="Grupo 96" transform="translate(0)">
        <path id="Caminho_63" data-name="Caminho 63" d="M254.741,416h-7.489a1.251,1.251,0,1,0,0,2.5h7.489a1.251,1.251,0,1,0,0-2.5Z" transform="translate(-246.001 -416)" fill="#fff"/>
      </g>
    </g>
    <g id="Grupo_99" data-name="Grupo 99" transform="translate(44.001)">
      <g id="Grupo_98" data-name="Grupo 98" transform="translate(0)">
        <path id="Caminho_64" data-name="Caminho 64" d="M90.936,4.878H81.383a7.663,7.663,0,0,0-5.3-2.126h-1.1a5,5,0,0,0-8.935,0h-1.1a7.663,7.663,0,0,0-5.3,2.126H50.1a6.106,6.106,0,0,0-6.1,6.1V57.942a6.106,6.106,0,0,0,6.1,6.1H90.936a6.106,6.106,0,0,0,6.1-6.1V10.977A6.105,6.105,0,0,0,90.936,4.878Zm-25.984.375H66.9a1.251,1.251,0,0,0,1.206-.918,2.5,2.5,0,0,1,4.822,0,1.251,1.251,0,0,0,1.206.918h1.947a5.2,5.2,0,0,1,5.173,4.753H59.779A5.2,5.2,0,0,1,64.952,5.253ZM94.533,57.942a3.6,3.6,0,0,1-3.6,3.6H50.1a3.6,3.6,0,0,1-3.6-3.6V10.977a3.6,3.6,0,0,1,3.6-3.6h7.8a7.647,7.647,0,0,0-.639,3.064v.813a1.251,1.251,0,0,0,1.251,1.251H82.523a1.251,1.251,0,0,0,1.251-1.251v-.813a7.647,7.647,0,0,0-.639-3.064h7.8a3.6,3.6,0,0,1,3.6,3.6Z" transform="translate(-44.001)" fill="#fff"/>
      </g>
    </g>
    <g id="Grupo_101" data-name="Grupo 101" transform="translate(51.663 18.345)">
      <g id="Grupo_100" data-name="Grupo 100" transform="translate(0)">
        <path id="Caminho_65" data-name="Caminho 65" d="M116.162,147.033a1.251,1.251,0,0,0-1.769,0l-5.349,5.349-1.648-1.648a1.251,1.251,0,1,0-1.769,1.769l2.532,2.532a1.251,1.251,0,0,0,1.769,0l6.233-6.233A1.251,1.251,0,0,0,116.162,147.033Z" transform="translate(-105.261 -146.667)" fill="#fff"/>
      </g>
    </g>
    <g id="Grupo_103" data-name="Grupo 103" transform="translate(52.256 46.029)">
      <g id="Grupo_102" data-name="Grupo 102" transform="translate(0)">
        <path id="Caminho_66" data-name="Caminho 66" d="M117.256,368h-6A1.251,1.251,0,0,0,110,369.251v6a1.251,1.251,0,0,0,1.251,1.251h6a1.251,1.251,0,0,0,1.251-1.251v-6A1.251,1.251,0,0,0,117.256,368ZM116,374h-3.5v-3.5H116Z" transform="translate(-110.001 -368)" fill="#fff"/>
      </g>
    </g>
    <g id="Grupo_105" data-name="Grupo 105" transform="translate(52.256 32.521)">
      <g id="Grupo_104" data-name="Grupo 104" transform="translate(0)">
        <path id="Caminho_67" data-name="Caminho 67" d="M117.256,260h-6A1.251,1.251,0,0,0,110,261.251v6a1.251,1.251,0,0,0,1.251,1.251h6a1.251,1.251,0,0,0,1.251-1.251v-6A1.251,1.251,0,0,0,117.256,260ZM116,266h-3.5v-3.5H116Z" transform="translate(-110.001 -260)" fill="#fff"/>
      </g>
    </g>
  </g>
</svg>
