<svg xmlns="http://www.w3.org/2000/svg" width="24.7" height="24.7" viewBox="0 0 24.7 24.7">
  <path id="clock001_-_E008" data-name="clock001 - E008" d="M0-4.75a12.184,12.184,0,0,1-4.788-.969A12.25,12.25,0,0,1-8.721-8.36a12.3,12.3,0,0,1-2.66-3.933A12.208,12.208,0,0,1-12.35-17.1,12.374,12.374,0,0,1,0-29.45a12.208,12.208,0,0,1,4.807.969,12.224,12.224,0,0,1,3.914,2.66,12.224,12.224,0,0,1,2.66,3.914A12.208,12.208,0,0,1,12.35-17.1a12.208,12.208,0,0,1-.969,4.807A12.3,12.3,0,0,1,8.721-8.36,12.482,12.482,0,0,1,4.807-5.719,12.208,12.208,0,0,1,0-4.75Zm0-22.8A10.468,10.468,0,0,0-10.45-17.1a10.64,10.64,0,0,0,.817,4.066A10.224,10.224,0,0,0-7.372-9.709,10.171,10.171,0,0,0-4.047-7.467,10.475,10.475,0,0,0,0-6.65,10.468,10.468,0,0,0,10.45-17.1a10.64,10.64,0,0,0-.817-4.066,10.916,10.916,0,0,0-2.242-3.325,10.916,10.916,0,0,0-3.325-2.242A10.64,10.64,0,0,0,0-27.55ZM1.33-14.63H-5.776v-1.9H-.57v-8.7h1.9Z" transform="translate(12.35 29.45)" fill="#512461"/>
</svg>
