<svg xmlns="http://www.w3.org/2000/svg" width="42.646" height="64.541" viewBox="0 0 42.646 64.541">
  <g id="contract" transform="translate(-90.827 -4.75)">
    <path id="Caminho_68" data-name="Caminho 68" d="M138.75,44.137h13.214a.765.765,0,0,0,0-1.531H138.75a.765.765,0,0,0,0,1.531Z" transform="translate(-40.849 -32.809)" fill="#fff" stroke="#fff" stroke-width="0.5"/>
    <path id="Caminho_69" data-name="Caminho 69" d="M134.082,82.247h13.809a.765.765,0,0,0,0-1.531H134.082a.765.765,0,0,0,0,1.531Z" transform="translate(-36.777 -66.057)" fill="#fff" stroke="#fff" stroke-width="0.5"/>
    <path id="Caminho_70" data-name="Caminho 70" d="M134.082,120.358h30.829a.765.765,0,1,0,0-1.531H134.082a.765.765,0,0,0,0,1.531Z" transform="translate(-36.777 -99.306)" fill="#fff" stroke="#fff" stroke-width="0.5"/>
    <path id="Caminho_71" data-name="Caminho 71" d="M164.912,158.468a.765.765,0,0,0,0-1.531H134.082a.765.765,0,0,0,0,1.531Z" transform="translate(-36.777 -132.554)" fill="#fff" stroke="#fff" stroke-width="0.5"/>
    <path id="Caminho_72" data-name="Caminho 72" d="M127.267,55.3a1.674,1.674,0,0,0,1.359.7,1.694,1.694,0,0,0,.67-.139l2.906-1.248a1.669,1.669,0,0,0,.855-2.248l-1.011-2.137L131.824,7.93A2.953,2.953,0,0,0,128.857,5H96.464A2.953,2.953,0,0,0,93.5,7.93V48.379l-2.139,4.058a1.659,1.659,0,0,0,.666,2.235l2.759,1.541a1.675,1.675,0,0,0,.82.215,1.7,1.7,0,0,0,.481-.07,1.666,1.666,0,0,0,1.009-.823l.3-.564,1,.822-1.747,2.4A2.659,2.659,0,0,0,98.79,62.42a2.7,2.7,0,0,0,.463-.04s0,.01,0,.015a2.657,2.657,0,0,0,2.626,2.232,2.711,2.711,0,0,0,.465-.04c0,.005,0,.011,0,.016a2.658,2.658,0,0,0,2.626,2.233,2.7,2.7,0,0,0,.463-.04c0,.005,0,.01,0,.015a2.67,2.67,0,0,0,4.792,1.133l.554-.762,1.036.821a2.873,2.873,0,0,0,4.01-.3,2.807,2.807,0,0,0,.673-1.49,2.865,2.865,0,0,0,2.977-.858,2.807,2.807,0,0,0,.673-1.49A2.865,2.865,0,0,0,123.128,63a2.807,2.807,0,0,0,.656-1.391,2.877,2.877,0,0,0,3.206-.79l.034-.039a2.764,2.764,0,0,0-.29-3.92l-.631-.54a6.071,6.071,0,0,0,1.164-1.027Zm4.41-2.178a.141.141,0,0,1-.079.081l-2.906,1.248a.153.153,0,0,1-.2-.071l-.367-.772a.768.768,0,0,0-.137-.288l-6.619-13.909a.132.132,0,0,1,0-.107.142.142,0,0,1,.083-.081l2.987-1.166a.152.152,0,0,1,.193.073l7.042,14.888a.132.132,0,0,1,0,.1ZM95.027,7.93a1.42,1.42,0,0,1,1.437-1.4h32.393a1.421,1.421,0,0,1,1.437,1.4l.2,39.015-4.484-9.479a1.687,1.687,0,0,0-2.134-.844l-2.987,1.166a1.669,1.669,0,0,0-.9,2.272l.312.655-.094.04a5.885,5.885,0,0,1-3.115-.128l-2.983-.832a4.741,4.741,0,0,0-2.7.043l-2.88.9a4.721,4.721,0,0,0-1.577.849,6.143,6.143,0,0,0-2.359-.224l.209-.395a1.67,1.67,0,0,0-.615-2.21l-2.743-1.654a1.685,1.685,0,0,0-2.359.653l-4.062,7.707Zm.711,46.888a.145.145,0,0,1-.089.072.153.153,0,0,1-.12-.013L92.77,53.336a.138.138,0,0,1-.058-.185l7.731-14.669a.145.145,0,0,1,.092-.073.166.166,0,0,1,.043-.006.152.152,0,0,1,.079.022l2.742,1.654a.137.137,0,0,1,.053.182Zm2.395,5.862a1.129,1.129,0,0,1-.257-1.583l2.867-3.944a1.142,1.142,0,0,1,1.584-.257,1.128,1.128,0,0,1,.257,1.582l-.777,1.069-2.078,2.859-.012.017A1.142,1.142,0,0,1,98.134,60.68Zm3.09,2.207a1.127,1.127,0,0,1-.257-1.58l2.079-2.86a1.142,1.142,0,0,1,1.582-.257,1.129,1.129,0,0,1,.257,1.583l-.655.9-1.409,1.937-.012.017a1.144,1.144,0,0,1-1.585.258Zm3.093,2.209a1.129,1.129,0,0,1-.257-1.583l1.43-1.967a1.143,1.143,0,0,1,1.584-.257,1.128,1.128,0,0,1,.257,1.582l-.949,1.306-.469.646h0l-.012.016a1.142,1.142,0,0,1-1.583.256Zm4.675,1.949a1.144,1.144,0,0,1-1.585.258,1.128,1.128,0,0,1-.257-1.58l.785-1.08a1.143,1.143,0,0,1,1.584-.257,1.128,1.128,0,0,1,.257,1.582Zm16.878-7.266-.034.039a1.343,1.343,0,0,1-1.88.143L122.839,59l0,0-2.958-2.533a.765.765,0,1,0-1,1.163l.015.013.026.022,2.922,2.5A1.292,1.292,0,0,1,121.975,62a1.337,1.337,0,0,1-1.872.135L117.144,59.6a.765.765,0,0,0-1.263.567v0a.763.763,0,0,0,.268.593l2.041,1.747a1.292,1.292,0,0,1,.136,1.836,1.337,1.337,0,0,1-1.872.135l-.917-.785h0l-1.123-.961a.765.765,0,1,0-1,1.163l.976.835.146.125a1.293,1.293,0,0,1,.136,1.836,1.337,1.337,0,0,1-1.872.135l-.023-.019-1.3-1.032a2.65,2.65,0,0,0-2.439-3.126,2.65,2.65,0,0,0-2.445-3.1,2.652,2.652,0,0,0-2.343-3.089,2.666,2.666,0,0,0-4.744-2.213l-.218.3-1.165-.963,5.569-10.509a5.627,5.627,0,0,1,2.153-.169,4.727,4.727,0,0,0-.241.485l-.88,2.125c-.226.545-.434,1.1-.619,1.665l-.878,2.656a.765.765,0,0,0,.417.94l.189.084a4.584,4.584,0,0,0,4.4-.336,4.441,4.441,0,0,0,1.992-3.283q.007-.066.012-.133c.042-.2.31-1.306,1.046-1.393l1.23.344a2.82,2.82,0,0,1,1.212.7l7.855,7.7.038.035,4.126,3.531a1.233,1.233,0,0,1,.13,1.751Zm-3.243-6.429-7.836-7.678a4.354,4.354,0,0,0-1.87-1.08l-1.35-.377a.734.734,0,0,0-.209-.028,2.487,2.487,0,0,0-2.193,1.433,4.454,4.454,0,0,0-.45,1.266.75.75,0,0,0-.009.076q0,.07-.012.14a2.916,2.916,0,0,1-1.312,2.153,3.072,3.072,0,0,1-2.476.375l.648-1.961c.173-.525.368-1.049.58-1.559l.877-2.118a3.171,3.171,0,0,1,1.975-1.782l2.88-.9a3.215,3.215,0,0,1,1.828-.029l2.984.831a7.344,7.344,0,0,0,3.914.136.761.761,0,0,0,.139-.044l.226-.1,5.549,11.66a4.538,4.538,0,0,1-1.626,1.513Z" fill="#fff" stroke="#fff" stroke-width="0.5"/>
    <path id="Caminho_73" data-name="Caminho 73" d="M139.17,196.728a3.376,3.376,0,0,0,1.437.3,3.847,3.847,0,0,0,2.023-.563,4.109,4.109,0,0,0,1.108-1.1c.05-.067.111-.148.164-.213a3.475,3.475,0,0,0,.681.473,4.538,4.538,0,0,0,2.048.522,4.666,4.666,0,0,0,2.445-.643.765.765,0,1,0-.771-1.323,3.128,3.128,0,0,1-1.641.436,3,3,0,0,1-1.357-.341,2.053,2.053,0,0,1-.45-.323,1.349,1.349,0,0,0-.912-.415,1.74,1.74,0,0,0-1.433.907,2.706,2.706,0,0,1-.7.72,2.278,2.278,0,0,1-1.988.172,1.483,1.483,0,0,1-.481-.379,3.583,3.583,0,0,0,1.646-.7,3.863,3.863,0,0,0,1.09-1.375,1.942,1.942,0,0,0-.011-1.908,2.056,2.056,0,0,0-1.437-.845,3.193,3.193,0,0,0-2.405.551,3.079,3.079,0,0,0-1.025,2.492l-.014-.006a.765.765,0,1,0-.6,1.407,5.572,5.572,0,0,0,.956.312A3.4,3.4,0,0,0,139.17,196.728Zm.008-4.838a1.566,1.566,0,0,1,.921-.265,1.747,1.747,0,0,1,.285.023.667.667,0,0,1,.4.165c.081.126-.167.8-.737,1.248a2.2,2.2,0,0,1-1.293.432A1.871,1.871,0,0,1,139.178,191.89Z" transform="translate(-39.224 -161.482)" fill="#fff" stroke="#fff" stroke-width="0.5"/>
    <path id="Caminho_74" data-name="Caminho 74" d="M297.177,215.417H285.688a.765.765,0,1,0,0,1.531h11.489a.765.765,0,1,0,0-1.531Z" transform="translate(-169.042 -183.574)" fill="#fff" stroke="#fff" stroke-width="0.5"/>
  </g>
</svg>
