<svg id="discuss" xmlns="http://www.w3.org/2000/svg" width="64.267" height="64.041" viewBox="0 0 64.267 64.041">
  <path id="Caminho_48" data-name="Caminho 48" d="M26.83,43.685A4.125,4.125,0,0,0,29.606,41.7H64.267V4.513H54.32a11.2,11.2,0,0,0-17.395,0H10.556v22.18a11.308,11.308,0,0,0-3.1,7.773v5.164a4.136,4.136,0,0,0,3.35,4.053,8.232,8.232,0,0,0,1.814,3.46v2.047L5.407,51.357a5.152,5.152,0,0,0-3.581,3.934L0,64.421H37.638l-1.826-9.131a5.152,5.152,0,0,0-3.581-3.934l-7.215-2.164V47.145A8.237,8.237,0,0,0,26.83,43.685Zm-3.879,5.691-4.132,2.479-4.132-2.479v-.533a8.2,8.2,0,0,0,8.263,0Zm-5.3,7.815h2.34l.737,5.164H16.913Zm2.389-2.066H17.6l-.362-1.811,1.581.949,1.581-.949Zm-1.219-7.23a6.2,6.2,0,0,1-6.2-6.2V38.31l4.132-1.378V38.6h1.033a18.643,18.643,0,0,0,7.23-1.472V41.7A6.2,6.2,0,0,1,18.819,47.895Zm8.263-6.485V37.854a2.047,2.047,0,0,1,0,3.556ZM62.2,6.579v23.7a5.144,5.144,0,0,0-3.162-2.69l-7.167-2.15v-.866a5.748,5.748,0,0,0,2.02-3.7c1.924-.675,3.145-3.225,3.145-4.994V12.1A11.95,11.95,0,0,0,55.69,6.579ZM39.319,4.961A9.208,9.208,0,0,1,46.3,2.468,9.5,9.5,0,0,1,54.971,12.1v3.779c0,1.28-1.068,3.1-2.066,3.1H51.872v1.033c0,1.594-.451,2.116-1.755,3.394l-.311.3v3.269l8.639,2.591a3.09,3.09,0,0,1,2.16,2.414L62,39.632H30.181V35.074l.563-3.1A3.082,3.082,0,0,1,32.9,29.566l8.646-2.593V23.7l-.311-.3c-1.3-1.278-1.755-1.8-1.755-3.394V18.974H38.444c-1,0-2.066-1.819-2.066-3.1V11.744A9.2,9.2,0,0,1,39.319,4.961ZM35.574,6.579a11.369,11.369,0,0,0-1.261,5.164v4.132c0,1.769,1.221,4.319,3.144,4.994a5.749,5.749,0,0,0,2.02,3.7v.866L32.3,27.587a5.126,5.126,0,0,0-3.022,2.449,11.343,11.343,0,0,0-16.659-5.08V6.579ZM18.819,25.171a9.307,9.307,0,0,1,9.3,9.3v1.607a4.048,4.048,0,0,0-1.033-.428v-1.18H25.017v.386a16.578,16.578,0,0,1-6.2,1.647V34.068l-6.2,2.066V34.467H10.556v1.18a4.069,4.069,0,0,0-1.033.428V34.467A9.307,9.307,0,0,1,18.819,25.171Zm-9.3,14.46a2.059,2.059,0,0,1,1.033-1.779v3.556A2.055,2.055,0,0,1,9.523,39.632ZM3.852,55.7A3.093,3.093,0,0,1,6,53.336l7.515-2.255,1.329.8.861,4.306-.882,6.171h-4.11l.864-6.051-2.045-.293-.907,6.343H2.52Zm27.787-2.36a3.093,3.093,0,0,1,2.148,2.36l1.331,6.659H29.011L28.1,56.011,26.06,56.3l.864,6.052h-4.11l-.881-6.171.861-4.306,1.329-.8Zm0,0" transform="translate(0 -0.38)" fill="#fff"/>
  <path id="Caminho_49" data-name="Caminho 49" d="M332.86,65.691a1.034,1.034,0,0,1-1.033-1.033h-2.066a3.094,3.094,0,0,0,2.066,2.909v1.223h2.066V67.566a3.091,3.091,0,0,0-1.033-6.007,1.033,1.033,0,1,1,1.033-1.033h2.066a3.1,3.1,0,0,0-2.066-2.909V56.395h-2.066v1.223a3.091,3.091,0,0,0,1.033,6.007,1.033,1.033,0,1,1,0,2.066Zm0,0" transform="translate(-287.186 -49.162)" fill="#fff"/>
  <path id="Caminho_50" data-name="Caminho 50" d="M113.762,72.395h2.066V74.46h-2.066Zm0,0" transform="translate(-99.074 -63.097)" fill="#fff"/>
  <path id="Caminho_51" data-name="Caminho 51" d="M145.762,72.395h13.428V74.46H145.762Zm0,0" transform="translate(-126.942 -63.097)" fill="#fff"/>
  <path id="Caminho_52" data-name="Caminho 52" d="M113.762,104.395h17.559v2.066H113.762Zm0,0" transform="translate(-99.074 -90.965)" fill="#fff"/>
  <path id="Caminho_53" data-name="Caminho 53" d="M113.762,136.395h17.559v2.066H113.762Zm0,0" transform="translate(-99.074 -118.834)" fill="#fff"/>
</svg>
