<svg xmlns="http://www.w3.org/2000/svg" width="356.187" height="356.187" viewBox="0 0 356.187 356.187"><path d="M326.5,211.645V59.364a29.712,29.712,0,0,0-29.682-29.682H252.3V7.42a7.42,7.42,0,1,0-14.841,0V29.682H103.888V7.421a7.42,7.42,0,1,0-14.841,0V29.682H29.682A29.711,29.711,0,0,0,0,59.364V296.822A29.712,29.712,0,0,0,29.682,326.5H211.645A81.592,81.592,0,1,0,326.5,211.645ZM14.841,59.364A14.861,14.861,0,0,1,29.682,44.523H89.047V59.364a14.841,14.841,0,1,0,14.841,14.841V44.523h133.57V59.364A14.841,14.841,0,1,0,252.3,74.205V44.523h44.523a14.861,14.861,0,0,1,14.842,14.841v44.523H14.841Zm14.842,252.3a14.86,14.86,0,0,1-14.841-14.841V118.729H311.663v83.217A81.482,81.482,0,0,0,201.946,311.663Zm244.878,29.682a66.785,66.785,0,1,1,66.785-66.785A66.858,66.858,0,0,1,274.561,341.346Z" fill="#fff"/><path d="M407.046,354.174l-46.7,46.7-17.015-17.015a7.42,7.42,0,0,0-10.493,10.493L355.1,416.611a7.418,7.418,0,0,0,10.494,0l51.944-51.944a7.42,7.42,0,0,0-10.494-10.493Z" transform="translate(-100.629 -107.122)" fill="#fff"/></svg>