<svg xmlns="http://www.w3.org/2000/svg" width="344.458" height="356.326" viewBox="0 0 344.458 356.326"><g transform="translate(0 0)"><path d="M232.014,27.945l7.679-7.679V71.258a5.939,5.939,0,1,0,11.879,0V20.267l7.679,7.679a5.938,5.938,0,1,0,8.4-8.4L249.837,1.736a5.959,5.959,0,0,0-8.408,0L223.617,19.548a5.938,5.938,0,0,0,8.4,8.4Z" transform="translate(-73.404 0)" fill="#fff"/><path d="M402.681,121.812l7.679-7.679v50.991a5.939,5.939,0,1,0,11.879,0V114.134l7.679,7.679a5.938,5.938,0,1,0,8.4-8.4L420.5,95.6a5.959,5.959,0,0,0-8.408,0l-17.811,17.812a5.938,5.938,0,0,0,8.4,8.4Z" transform="translate(-125.292 -28.539)" fill="#fff"/><path d="M61.348,121.812l7.679-7.679v50.991a5.939,5.939,0,1,0,11.879,0V114.134l7.679,7.679a5.939,5.939,0,0,0,8.4-8.4L79.17,95.6a5.959,5.959,0,0,0-8.408,0L52.951,113.415a5.938,5.938,0,0,0,8.4,8.4Z" transform="translate(-21.516 -28.539)" fill="#fff"/><path d="M327.541,319.41a41.531,41.531,0,0,0-22.068-76.74c-.594,0-1.173.065-1.761.089A41.8,41.8,0,0,0,263.9,212.975c-.593,0-1.175.056-1.763.081a41.8,41.8,0,0,0-39.809-29.776c-.593,0-1.175.056-1.763.081a41.5,41.5,0,0,0-79.619,0c-.588-.025-1.17-.081-1.763-.081a41.8,41.8,0,0,0-39.809,29.776c-.588-.025-1.17-.081-1.763-.081A41.8,41.8,0,0,0,57.8,242.759c-.588-.024-1.166-.089-1.761-.089a41.531,41.531,0,0,0-22.068,76.74A47.534,47.534,0,0,0,8.527,361.448v29.695a11.892,11.892,0,0,0,11.878,11.878h320.7a11.892,11.892,0,0,0,11.878-11.878V361.448A47.536,47.536,0,0,0,327.541,319.41ZM294.47,256.716a29.546,29.546,0,0,1,3.031-.943c.816-.226,1.606-.51,2.451-.667a29.773,29.773,0,1,1-23.6,23.466c.107-.553.3-1.072.438-1.614a29.58,29.58,0,0,1,1.167-3.752c.22-.549.5-1.066.75-1.6a29.649,29.649,0,0,1,1.815-3.339c.3-.474.636-.924.965-1.379a29.835,29.835,0,0,1,2.457-2.977c.373-.4.752-.782,1.146-1.155a30,30,0,0,1,2.962-2.446c.465-.338.921-.687,1.407-1a29.667,29.667,0,0,1,3.18-1.728C293.248,257.293,293.836,256.968,294.47,256.716Zm-40.033-30.272c.848-.283,1.734-.477,2.615-.685a29.067,29.067,0,0,1,6.848-.905,29.884,29.884,0,0,1,28.082,20.07c-.207.07-.39.183-.6.256a41.4,41.4,0,0,0-4.637,2c-.329.165-.671.306-.994.48a41.492,41.492,0,0,0-4.288,2.707c-.578.409-1.138.83-1.693,1.267a41.939,41.939,0,0,0-3.223,2.812c-.585.568-1.132,1.161-1.683,1.762q-1.212,1.322-2.31,2.741c-.427.554-.855,1.1-1.253,1.674a41.425,41.425,0,0,0-2.574,4.224c-.262.5-.489,1.008-.731,1.517a41.277,41.277,0,0,0-1.711,4.123c-.132.376-.289.737-.41,1.118a41.175,41.175,0,0,0-1.3,5.4c-.079.448-.143.9-.207,1.349a41.5,41.5,0,0,0-.468,5.9,41.54,41.54,0,0,0-.468-5.9c-.064-.45-.127-.9-.206-1.344a41.127,41.127,0,0,0-1.306-5.4c-.121-.38-.278-.742-.41-1.118a41.366,41.366,0,0,0-1.711-4.123c-.242-.508-.469-1.02-.731-1.517a41.5,41.5,0,0,0-2.576-4.227c-.4-.574-.825-1.118-1.251-1.671q-1.1-1.424-2.311-2.742c-.551-.6-1.1-1.2-1.683-1.762a41.931,41.931,0,0,0-3.223-2.812c-.554-.436-1.114-.857-1.69-1.265a41.6,41.6,0,0,0-4.29-2.708c-.324-.174-.665-.314-.994-.48a41.287,41.287,0,0,0-4.637-2c-.193-.069-.366-.175-.561-.242.164-.482.382-.935.57-1.405a29.284,29.284,0,0,1,1.175-2.7c.144-.276.328-.528.48-.8a29.617,29.617,0,0,1,2.029-3.188l.043-.052a30.151,30.151,0,0,1,10.244-8.64c.219-.111.454-.191.676-.3A29.57,29.57,0,0,1,254.437,226.444Zm-86.334,28a41.931,41.931,0,0,0-3.223-2.812c-.554-.436-1.114-.857-1.691-1.265a41.6,41.6,0,0,0-4.29-2.708c-.324-.174-.665-.314-.994-.48a41.262,41.262,0,0,0-4.637-2c-.193-.069-.366-.175-.561-.241.164-.482.382-.935.57-1.405a29.274,29.274,0,0,1,1.175-2.7c.144-.276.328-.527.48-.8a29.616,29.616,0,0,1,2.029-3.188l.043-.052a30.151,30.151,0,0,1,10.244-8.64c.218-.111.454-.191.676-.3a29.768,29.768,0,0,1,3.368-1.411c.848-.283,1.734-.477,2.615-.686.623-.151,1.23-.348,1.867-.458.224-.044.484-.065.72-.1a29.192,29.192,0,0,1,4.194-.339h.155a29.191,29.191,0,0,1,4.172.338c.237.038.5.058.722.1.636.11,1.243.308,1.867.458.881.208,1.767.4,2.615.686a29.756,29.756,0,0,1,3.368,1.411c.221.107.458.186.676.3a30.151,30.151,0,0,1,10.244,8.64l.043.052a29.8,29.8,0,0,1,2.029,3.188c.152.271.336.523.48.8a29.274,29.274,0,0,1,1.175,2.7c.188.47.406.923.57,1.405-.195.067-.367.172-.561.241a41.384,41.384,0,0,0-4.637,2c-.329.165-.67.306-.994.48a41.493,41.493,0,0,0-4.288,2.707c-.578.409-1.138.83-1.693,1.267a41.928,41.928,0,0,0-3.223,2.812c-.585.568-1.132,1.162-1.683,1.762q-1.212,1.322-2.31,2.741c-.427.554-.855,1.1-1.253,1.674a41.427,41.427,0,0,0-2.574,4.224c-.262.5-.489,1.008-.731,1.516a41.279,41.279,0,0,0-1.711,4.123c-.132.376-.289.737-.41,1.118a41.168,41.168,0,0,0-1.3,5.4c-.079.448-.143.9-.207,1.349a41.606,41.606,0,0,0-.468,5.9,41.529,41.529,0,0,0-.468-5.9c-.064-.45-.127-.9-.206-1.344a41.129,41.129,0,0,0-1.306-5.4c-.121-.38-.278-.742-.41-1.118a41.376,41.376,0,0,0-1.711-4.123c-.242-.508-.469-1.02-.731-1.516a41.5,41.5,0,0,0-2.576-4.227c-.4-.574-.825-1.118-1.251-1.671q-1.1-1.424-2.311-2.742C169.236,255.6,168.689,255.008,168.1,254.44Zm-10.924,53.412a29.626,29.626,0,0,1-47.118-29.279c.107-.553.3-1.072.438-1.614a29.585,29.585,0,0,1,1.167-3.752c.22-.549.5-1.066.75-1.6a29.657,29.657,0,0,1,1.815-3.339c.3-.474.636-.924.965-1.379a29.822,29.822,0,0,1,2.457-2.977c.373-.4.752-.781,1.146-1.155a29.986,29.986,0,0,1,2.962-2.446c.465-.338.921-.687,1.407-1a29.665,29.665,0,0,1,3.18-1.728c.61-.292,1.2-.618,1.832-.869a29.546,29.546,0,0,1,3.031-.943c.816-.226,1.606-.51,2.451-.667a29.644,29.644,0,0,1,5.47-.553h.1a29.627,29.627,0,0,1,5.47.553c.846.157,1.636.441,2.451.667a29.517,29.517,0,0,1,3.031.943c.634.251,1.222.577,1.832.869a29.792,29.792,0,0,1,3.18,1.728c.486.311.942.66,1.407,1a29.814,29.814,0,0,1,2.962,2.446c.395.374.774.76,1.146,1.155a29.822,29.822,0,0,1,2.457,2.977c.329.455.662.905.965,1.379a29.721,29.721,0,0,1,1.815,3.339c.252.533.53,1.05.75,1.6a29.583,29.583,0,0,1,1.167,3.752c.137.542.331,1.061.438,1.614A29.679,29.679,0,0,1,157.179,307.852Zm36.027-29.279c.107-.553.3-1.072.438-1.614a29.586,29.586,0,0,1,1.167-3.752c.22-.549.5-1.066.75-1.6a29.637,29.637,0,0,1,1.815-3.339c.3-.474.636-.924.965-1.379a29.824,29.824,0,0,1,2.457-2.977c.373-.4.752-.782,1.146-1.155a29.987,29.987,0,0,1,2.962-2.446c.465-.338.921-.687,1.407-1a29.647,29.647,0,0,1,3.18-1.728c.61-.292,1.2-.618,1.832-.869a29.546,29.546,0,0,1,3.031-.943c.816-.226,1.606-.509,2.451-.667a29.591,29.591,0,0,1,5.426-.548h.176a29.675,29.675,0,0,1,5.438.55c.846.157,1.636.441,2.451.667a29.548,29.548,0,0,1,3.031.943c.634.251,1.222.577,1.832.869a29.782,29.782,0,0,1,3.18,1.728c.486.311.942.66,1.407,1a29.809,29.809,0,0,1,2.962,2.446c.395.374.773.76,1.146,1.155a29.817,29.817,0,0,1,2.457,2.977c.328.455.662.905.965,1.379a29.711,29.711,0,0,1,1.815,3.339c.251.533.53,1.05.75,1.6a29.593,29.593,0,0,1,1.167,3.752c.137.542.331,1.061.438,1.614a29.695,29.695,0,1,1-58.242,0Zm19.654-81.822c.854-.285,1.747-.482,2.635-.69a29.088,29.088,0,0,1,6.832-.9,29.874,29.874,0,0,1,28.082,20.076h0c-.26.088-.5.216-.756.31-.578.214-1.139.46-1.706.7a41.331,41.331,0,0,0-18.2,14.708c-.169.244-.329.493-.493.74-.559.848-1.112,1.694-1.609,2.584q-.918,1.628-1.69,3.344c-.225.508-.412,1.035-.617,1.554-.37.923-.714,1.856-1.019,2.81-.077.245-.189.474-.261.721-.342-.014-.693.005-1.041,0-.231,0-.455-.035-.687-.035s-.456.031-.687.035c-.349.005-.7-.014-1.041,0-.073-.247-.184-.476-.261-.721-.3-.954-.648-1.888-1.019-2.81-.206-.519-.392-1.047-.617-1.554q-.773-1.717-1.692-3.347c-.5-.888-1.049-1.734-1.606-2.579-.164-.248-.324-.5-.494-.742a41.333,41.333,0,0,0-18.2-14.706c-.569-.239-1.131-.486-1.711-.7-.246-.089-.474-.212-.722-.3.157-.462.368-.9.547-1.348a29.429,29.429,0,0,1,1.2-2.764c.14-.268.317-.511.465-.774a29.676,29.676,0,0,1,2.038-3.207l.05-.06a30.116,30.116,0,0,1,10.234-8.635c.23-.118.479-.2.713-.313A29.144,29.144,0,0,1,212.861,196.751Zm-32.1-31.286a29.679,29.679,0,0,1,28.082,20.075c-.26.088-.5.216-.756.31-.578.214-1.139.46-1.706.7a41.332,41.332,0,0,0-18.2,14.708c-.169.244-.329.493-.493.741-.559.848-1.112,1.694-1.609,2.583q-.918,1.628-1.691,3.344c-.225.508-.412,1.035-.617,1.554-.37.923-.714,1.856-1.019,2.81-.077.245-.189.474-.261.721-.569-.023-1.143-.035-1.728-.035s-1.16.012-1.728.035c-.073-.247-.184-.476-.261-.721-.3-.954-.648-1.888-1.019-2.81-.206-.519-.392-1.047-.617-1.554q-.773-1.717-1.692-3.347c-.5-.888-1.049-1.734-1.606-2.579-.164-.248-.324-.5-.494-.742a41.332,41.332,0,0,0-18.2-14.706c-.569-.239-1.131-.487-1.711-.7-.257-.093-.5-.221-.754-.309A29.676,29.676,0,0,1,180.756,165.464Zm-41.573,29.694a29.079,29.079,0,0,1,6.832.9c.888.209,1.781.405,2.635.69a29.665,29.665,0,0,1,3.334,1.4c.234.111.483.2.713.313a30.129,30.129,0,0,1,10.234,8.634l.05.06a29.78,29.78,0,0,1,2.038,3.207c.147.263.325.506.465.774a29.738,29.738,0,0,1,1.2,2.764c.179.452.39.886.547,1.348-.248.085-.477.207-.723.3-.578.214-1.139.46-1.706.7a41.331,41.331,0,0,0-18.2,14.708c-.169.244-.329.493-.493.741-.559.848-1.112,1.694-1.609,2.584q-.918,1.628-1.69,3.344c-.225.508-.412,1.035-.617,1.554-.37.923-.714,1.856-1.019,2.81-.077.245-.189.474-.261.721-.568-.022-1.142-.034-1.728-.034s-1.16.012-1.728.035c-.073-.247-.184-.476-.261-.721-.3-.954-.648-1.888-1.019-2.81-.206-.519-.392-1.047-.617-1.554q-.773-1.717-1.692-3.347c-.5-.888-1.049-1.734-1.606-2.579-.164-.248-.324-.5-.494-.742a41.333,41.333,0,0,0-18.2-14.706c-.569-.239-1.131-.487-1.711-.7-.257-.093-.5-.221-.754-.309A29.871,29.871,0,0,1,139.183,195.159ZM69.529,244.923a29.873,29.873,0,0,1,28.082-20.07,29.062,29.062,0,0,1,6.812.9c.9.21,1.8.409,2.66.7a29.712,29.712,0,0,1,3.279,1.373c.253.12.521.212.77.338a30.111,30.111,0,0,1,10.166,8.558c.038.05.084.094.121.145a29.747,29.747,0,0,1,1.98,3.114c.166.294.365.567.521.868.449.855.8,1.767,1.16,2.669.191.477.412.937.578,1.426-.195.067-.367.172-.561.241a41.387,41.387,0,0,0-4.637,2c-.329.165-.671.306-.994.48a41.565,41.565,0,0,0-4.288,2.707c-.578.409-1.138.83-1.693,1.267a41.931,41.931,0,0,0-3.223,2.812c-.585.568-1.132,1.162-1.683,1.762q-1.212,1.322-2.31,2.741c-.426.554-.855,1.1-1.253,1.674a41.436,41.436,0,0,0-2.574,4.224c-.262.5-.489,1.008-.731,1.516A41.276,41.276,0,0,0,100,270.482c-.132.376-.289.737-.41,1.118a41.17,41.17,0,0,0-1.3,5.4c-.079.448-.143.9-.207,1.349a41.494,41.494,0,0,0-.469,5.9,41.526,41.526,0,0,0-.468-5.9c-.064-.45-.127-.9-.206-1.344a41.132,41.132,0,0,0-1.306-5.4c-.121-.38-.278-.742-.41-1.118a41.376,41.376,0,0,0-1.711-4.123c-.242-.508-.469-1.02-.731-1.516a41.48,41.48,0,0,0-2.576-4.227c-.4-.574-.825-1.118-1.251-1.671q-1.1-1.424-2.311-2.742c-.551-.6-1.1-1.195-1.683-1.762a41.929,41.929,0,0,0-3.223-2.812c-.554-.436-1.114-.857-1.691-1.265a41.6,41.6,0,0,0-4.29-2.708c-.324-.174-.665-.314-.994-.48a41.263,41.263,0,0,0-4.637-2c-.205-.074-.389-.186-.6-.257ZM26.344,284.242a29.5,29.5,0,0,1,35.215-29.136c.846.157,1.636.441,2.451.667a29.547,29.547,0,0,1,3.031.943c.634.251,1.222.577,1.832.869a29.785,29.785,0,0,1,3.18,1.728c.486.311.942.66,1.407,1a29.813,29.813,0,0,1,2.962,2.446c.395.374.773.76,1.146,1.155a29.823,29.823,0,0,1,2.457,2.977c.328.455.662.905.965,1.379a29.705,29.705,0,0,1,1.815,3.339c.252.533.53,1.05.75,1.6a29.593,29.593,0,0,1,1.167,3.752c.137.542.331,1.061.438,1.614a29.683,29.683,0,1,1-58.816,5.67Zm65.328,106.9H20.4V361.448a35.634,35.634,0,1,1,71.267,0ZM78.106,319.41A41.7,41.7,0,0,0,95.88,296.04c.58.024,1.135.079,1.73.079s1.151-.056,1.73-.079a41.7,41.7,0,0,0,17.774,23.369A47.814,47.814,0,0,0,97.61,338.5,47.812,47.812,0,0,0,78.106,319.41Zm96.71,71.733H103.55V361.448a35.634,35.634,0,1,1,71.267,0ZM161.251,319.41a41.7,41.7,0,0,0,17.774-23.368c.58.023,1.134.079,1.73.079s1.151-.056,1.73-.079A41.7,41.7,0,0,0,200.26,319.41a47.814,47.814,0,0,0-19.5,19.088A47.821,47.821,0,0,0,161.251,319.41Zm96.71,71.733H186.695V361.448a35.634,35.634,0,1,1,71.267,0ZM244.4,319.41a41.7,41.7,0,0,0,17.774-23.368c.58.023,1.134.079,1.73.079s1.151-.056,1.73-.079A41.7,41.7,0,0,0,283.4,319.41,47.813,47.813,0,0,0,263.9,338.5,47.821,47.821,0,0,0,244.4,319.41Zm96.71,71.733H269.839V361.448a35.634,35.634,0,1,1,71.267,0v29.695Z" transform="translate(-8.527 -46.695)" fill="#fff"/></g></svg>