<svg xmlns="http://www.w3.org/2000/svg" width="13.552" height="20.3" viewBox="0 0 13.552 20.3">
  <path id="pin001_-_E017" data-name="pin001 - E017" d="M0-22.75a6.773,6.773,0,0,0-6.776,6.776,6.961,6.961,0,0,0,.91,3.36l.014.014L0-2.45,5.852-12.6l.014-.014a6.961,6.961,0,0,0,.91-3.36A6.773,6.773,0,0,0,0-22.75Zm0,1.4a5.377,5.377,0,0,1,5.376,5.376A5.256,5.256,0,0,1,4.634-13.3h.014L0-5.25-4.648-13.3h.014a5.256,5.256,0,0,1-.742-2.674A5.377,5.377,0,0,1,0-21.35Zm0,8.344a2.982,2.982,0,0,0,2.982-2.968A2.976,2.976,0,0,0,0-18.956a2.973,2.973,0,0,0-2.968,2.982A2.97,2.97,0,0,0,0-13.006Zm0-1.4a1.565,1.565,0,0,1-1.568-1.568A1.569,1.569,0,0,1,0-17.556a1.589,1.589,0,0,1,1.582,1.582A1.587,1.587,0,0,1,0-14.406Z" transform="translate(6.776 22.75)" fill="#512461"/>
</svg>
