<svg xmlns="http://www.w3.org/2000/svg" width="18.392" height="27.55" viewBox="0 0 18.392 27.55">
  <path id="pin001_-_E017" data-name="pin001 - E017" d="M0-30.875a9.191,9.191,0,0,0-9.2,9.2,9.447,9.447,0,0,0,1.235,4.56l.019.019L0-3.325,7.942-17.1l.019-.019A9.447,9.447,0,0,0,9.2-21.679,9.191,9.191,0,0,0,0-30.875Zm0,1.9a7.3,7.3,0,0,1,7.3,7.3A7.133,7.133,0,0,1,6.289-18.05h.019L0-7.125-6.308-18.05h.019A7.133,7.133,0,0,1-7.3-21.679,7.3,7.3,0,0,1,0-28.975ZM0-17.651a4.046,4.046,0,0,0,4.047-4.028A4.038,4.038,0,0,0,0-25.726a4.034,4.034,0,0,0-4.028,4.047A4.03,4.03,0,0,0,0-17.651Zm0-1.9a2.125,2.125,0,0,1-2.128-2.128A2.129,2.129,0,0,1,0-23.826a2.157,2.157,0,0,1,2.147,2.147A2.153,2.153,0,0,1,0-19.551Z" transform="translate(9.196 30.875)" fill="#512461"/>
</svg>
