<svg id="seminar" xmlns="http://www.w3.org/2000/svg" width="64.041" height="64.041" viewBox="0 0 64.041 64.041">
  <g id="Grupo_107" data-name="Grupo 107" transform="translate(17.078 44.829)">
    <g id="Grupo_106" data-name="Grupo 106">
      <path id="Caminho_75" data-name="Caminho 75" d="M170.587,346.771a5.28,5.28,0,0,0,1.174-3.3v-2.135a5.337,5.337,0,1,0-10.673,0v2.135a5.28,5.28,0,0,0,1.174,3.3,5.324,5.324,0,0,0-3.309,2.071,5.324,5.324,0,0,0-3.309-2.071,5.28,5.28,0,0,0,1.174-3.3v-2.135a5.337,5.337,0,1,0-10.674,0v2.135a5.28,5.28,0,0,0,1.174,3.3,5.324,5.324,0,0,0-3.309,2.071,5.324,5.324,0,0,0-3.309-2.071,5.28,5.28,0,0,0,1.174-3.3v-2.135a5.337,5.337,0,1,0-10.674,0v2.135a5.28,5.28,0,0,0,1.174,3.3A5.337,5.337,0,0,0,128,352.01v3.2h2.135v-3.2a3.2,3.2,0,0,1,3.2-3.2h6.4a3.2,3.2,0,0,1,3.2,3.2v3.2h2.135v-3.2a3.2,3.2,0,0,1,3.2-3.2h6.4a3.2,3.2,0,0,1,3.2,3.2v3.2h2.135v-3.2a3.2,3.2,0,0,1,3.2-3.2h6.4a3.2,3.2,0,0,1,3.2,3.2v3.2h2.135v-3.2A5.337,5.337,0,0,0,170.587,346.771Zm-30.846-3.3a3.2,3.2,0,0,1-6.4,0v-2.135a3.2,3.2,0,0,1,6.4,0Zm14.943,0a3.2,3.2,0,0,1-6.4,0v-2.135a3.2,3.2,0,0,1,6.4,0Zm14.943,0a3.2,3.2,0,0,1-6.4,0v-2.135a3.2,3.2,0,0,1,6.4,0Z" transform="translate(-128 -336)" fill="#fff"/>
    </g>
  </g>
  <g id="Grupo_109" data-name="Grupo 109" transform="translate(0 10.674)">
    <g id="Grupo_108" data-name="Grupo 108">
      <path id="Caminho_76" data-name="Caminho 76" d="M26.007,90.748a1.066,1.066,0,0,0-.39-.074H21.347a1.067,1.067,0,0,0-1,.7l-1.131,3.111-.037-.1a5.657,5.657,0,0,0-5.3-3.712h-.028a5.281,5.281,0,0,0,1.1-3.2V85.337a5.337,5.337,0,0,0-10.674,0v2.135a5.281,5.281,0,0,0,1.1,3.2H5.337A5.343,5.343,0,0,0,0,96.01v12.808a1.067,1.067,0,0,0,1.067,1.067h3.2v10.353l-1.955,2.93a1.067,1.067,0,0,0,.888,1.66H16.01a1.067,1.067,0,0,0,.888-1.66l-1.955-2.93V100.532l.269.534a4.364,4.364,0,0,0,7.955-.331L24.9,96.4l1.708-4.269A1.067,1.067,0,0,0,26.007,90.748ZM6.4,85.337a3.2,3.2,0,0,1,6.4,0v2.135a3.2,3.2,0,0,1-6.4,0ZM4.269,107.751H2.135v-2.135H4.269Zm6.4,14.943V109.886H8.539v12.808H5.2l1.028-1.542a1.074,1.074,0,0,0,.179-.592V107.751h6.4v12.808a1.074,1.074,0,0,0,.179.592l1.028,1.542ZM21.185,99.947a2.23,2.23,0,0,1-4.063.169l-2.285-4.582a1.067,1.067,0,0,0-2.028.477v9.606H6.4V96.01a1.067,1.067,0,1,0-2.135,0v7.471H2.135V96.01a3.2,3.2,0,0,1,3.2-3.2h3.2v10.674h2.135V92.808h3.2a3.514,3.514,0,0,1,3.293,2.307l1.041,2.862a1.067,1.067,0,0,0,2.007,0l.327-.9h1.79Zm2-5H21.318l.776-2.135H24.04Z" transform="translate(0 -80)" fill="#fff"/>
    </g>
  </g>
  <g id="Grupo_111" data-name="Grupo 111" transform="translate(17.078)">
    <g id="Grupo_110" data-name="Grupo 110">
      <path id="Caminho_77" data-name="Caminho 77" d="M173.9,6.4a1.067,1.067,0,0,0,1.067-1.067V1.067A1.067,1.067,0,0,0,173.9,0H129.067A1.067,1.067,0,0,0,128,1.067V5.337A1.067,1.067,0,0,0,129.067,6.4h1.067V19.212h2.135V6.4h38.425V29.886H136.539v2.135h13.876v4.718L143.477,40.7l1.059,1.853,5.879-3.357v3.5h2.135V39.2l5.87,3.357,1.059-1.853-6.929-3.962V32.021h22.414V29.886h-2.135V6.4ZM130.135,4.269V2.135h42.694V4.269Z" transform="translate(-128)" fill="#fff"/>
    </g>
  </g>
  <g id="Grupo_113" data-name="Grupo 113" transform="translate(28.198 10.706)">
    <g id="Grupo_112" data-name="Grupo 112">
      <path id="Caminho_78" data-name="Caminho 78" d="M235.713,81.307l-4.269-1.067-.519,2.071,2,.5-8.1,5.671-4.712-3.77a1.067,1.067,0,0,0-1.287-.034l-7.471,5.337,1.24,1.736,6.815-4.867,4.706,3.766a1.067,1.067,0,0,0,1.281.041l8.992-6.3v2.219h2.135V82.343A1.068,1.068,0,0,0,235.713,81.307Z" transform="translate(-211.352 -80.24)" fill="#fff"/>
    </g>
  </g>
</svg>
