<svg xmlns="http://www.w3.org/2000/svg" width="13.49" height="26.6" viewBox="0 0 13.49 26.6">
  <path id="smartphone001_-_E108" data-name="smartphone001 - E108" d="M4.066-3.8H-4.066a2.66,2.66,0,0,1-1.9-.8,2.676,2.676,0,0,1-.779-1.881V-27.721A2.676,2.676,0,0,1-5.966-29.6a2.659,2.659,0,0,1,1.9-.8H4.066a2.659,2.659,0,0,1,1.9.8,2.676,2.676,0,0,1,.779,1.881V-6.479A2.676,2.676,0,0,1,5.966-4.6,2.66,2.66,0,0,1,4.066-3.8ZM-4.845-26.03h9.69v-1.691a.761.761,0,0,0-.228-.551.761.761,0,0,0-.551-.228H-4.066a.761.761,0,0,0-.551.228.761.761,0,0,0-.228.551Zm0,14.06h9.69V-24.13h-9.69Zm0,1.9v3.591a.761.761,0,0,0,.228.551.761.761,0,0,0,.551.228H4.066a.761.761,0,0,0,.551-.228.761.761,0,0,0,.228-.551V-10.07ZM0-6.346A1.533,1.533,0,0,1-1.539-7.885,1.533,1.533,0,0,1,0-9.424,1.533,1.533,0,0,1,1.539-7.885,1.533,1.533,0,0,1,0-6.346Z" transform="translate(6.745 30.4)" fill="#512461"/>
</svg>
