<svg xmlns="http://www.w3.org/2000/svg" width="355.686" height="356.326" viewBox="0 0 355.686 356.326"><path d="M308.7,80.434H.434v189.7H30.074v23.712H332.408V98.218H308.7ZM12.29,92.29H296.839V258.277H12.29Zm308.262,17.784V281.989H41.93V270.133H308.7V110.074Zm0,0" transform="translate(-0.434 -20.831)" fill="#fff"/><path d="M80.434,384.434H92.29V396.29H80.434Zm0,0" transform="translate(-21.153 -99.563)" fill="#fff"/><path d="M112.434,384.434H124.29V396.29H112.434Zm0,0" transform="translate(-29.44 -99.563)" fill="#fff"/><path d="M144.434,384.434H156.29V396.29H144.434Zm0,0" transform="translate(-37.728 -99.563)" fill="#fff"/><path d="M176.434,384.434H188.29V396.29H176.434Zm0,0" transform="translate(-46.015 -99.563)" fill="#fff"/><path d="M208.434,384.434H220.29V396.29H208.434Zm0,0" transform="translate(-54.303 -99.563)" fill="#fff"/><path d="M240.434,384.434H252.29V396.29H240.434Zm0,0" transform="translate(-62.59 -99.563)" fill="#fff"/><path d="M272.434,384.434H284.29V396.29H272.434Zm0,0" transform="translate(-70.878 -99.563)" fill="#fff"/><path d="M304.434,384.434H316.29V396.29H304.434Zm0,0" transform="translate(-79.166 -99.563)" fill="#fff"/><path d="M336.434,384.434H348.29V396.29H336.434Zm0,0" transform="translate(-87.453 -99.563)" fill="#fff"/><path d="M368.434,384.434H380.29V396.29H368.434Zm0,0" transform="translate(-95.741 -99.563)" fill="#fff"/><path d="M400.434,384.434H412.29V396.29H400.434Zm0,0" transform="translate(-104.028 -99.563)" fill="#fff"/><path d="M432.434,384.434H444.29V396.29H432.434Zm0,0" transform="translate(-112.316 -99.563)" fill="#fff"/><path d="M464.434,384.434H476.29V396.29H464.434Zm0,0" transform="translate(-120.604 -99.563)" fill="#fff"/><path d="M464.434,160.434H476.29V172.29H464.434Zm0,0" transform="translate(-120.604 -41.55)" fill="#fff"/><path d="M464.434,128.434H476.29V140.29H464.434Zm0,0" transform="translate(-120.604 -33.263)" fill="#fff"/><path d="M464.434,192.434H476.29V204.29H464.434Zm0,0" transform="translate(-120.604 -49.838)" fill="#fff"/><path d="M464.434,224.434H476.29V236.29H464.434Zm0,0" transform="translate(-120.604 -58.125)" fill="#fff"/><path d="M464.434,256.434H476.29V268.29H464.434Zm0,0" transform="translate(-120.604 -66.413)" fill="#fff"/><path d="M464.434,288.434H476.29V300.29H464.434Zm0,0" transform="translate(-120.604 -74.7)" fill="#fff"/><path d="M464.434,320.434H476.29V332.29H464.434Zm0,0" transform="translate(-120.604 -82.988)" fill="#fff"/><path d="M464.434,352.434H476.29V364.29H464.434Zm0,0" transform="translate(-120.604 -91.276)" fill="#fff"/><path d="M191.689,12.178A260.257,260.257,0,0,1,298.52,34.483l-18.236,4.886,3.071,11.454,40.084-10.742L312.7,0,301.247,3.065l6.041,22.508A271.064,271.064,0,0,0,191.689.321,263.1,263.1,0,0,0,52.223,38.449l6.261,10.079A251.345,251.345,0,0,1,191.689,12.178Zm0,0" transform="translate(-13.846)" fill="#fff"/><path d="M178.39,450.927A260.26,260.26,0,0,1,71.565,428.618l18.227-4.886-3.071-11.451L46.648,423.023,57.39,463.1l11.454-3.065L62.809,437.51A270.976,270.976,0,0,0,178.39,462.783a263.073,263.073,0,0,0,139.464-38.13l-6.261-10.079A251.313,251.313,0,0,1,178.39,450.927Zm0,0" transform="translate(-12.403 -106.775)" fill="#fff"/><path d="M196,160.434A35.569,35.569,0,1,0,231.571,196,35.567,35.567,0,0,0,196,160.434Zm0,59.281A23.712,23.712,0,1,1,219.715,196,23.712,23.712,0,0,1,196,219.715Zm0,0" transform="translate(-41.871 -41.55)" fill="#fff"/><path d="M263.63,118.362v-5.928H62.074v5.928a23.714,23.714,0,0,1-23.712,23.713H32.434v82.993h5.928A23.712,23.712,0,0,1,62.074,248.78v5.928H263.63V248.78a23.71,23.71,0,0,1,23.712-23.712h5.928V142.074h-5.928A23.712,23.712,0,0,1,263.63,118.362ZM281.414,213.7a35.669,35.669,0,0,0-29.148,29.148H73.438A35.672,35.672,0,0,0,44.29,213.7V153.438A35.675,35.675,0,0,0,73.438,124.29H252.266a35.672,35.672,0,0,0,29.148,29.148Zm0,0" transform="translate(-8.721 -29.119)" fill="#fff"/><path d="M288.434,200.434H324V212.29H288.434Zm0,0" transform="translate(-75.022 -51.91)" fill="#fff"/><path d="M80.434,200.434H116V212.29H80.434Zm0,0" transform="translate(-21.153 -51.91)" fill="#fff"/></svg>