<svg xmlns="http://www.w3.org/2000/svg" width="356.455" height="356.455" viewBox="0 0 356.455 356.455"><g transform="translate(122.579 122.579)"><g transform="translate(0 0)"><rect width="16.695" height="11.13" fill="#fff"/></g></g><g transform="translate(122.579 139.274)"><g transform="translate(0 0)"><rect width="16.695" height="16.695" fill="#fff"/></g></g><g transform="translate(122.579 167.098)"><g transform="translate(0 0)"><rect width="16.695" height="11.13" fill="#fff"/></g></g><g transform="translate(122.579 189.357)"><g transform="translate(0 0)"><rect width="16.695" height="11.13" fill="#fff"/></g></g><g transform="translate(150.403 122.579)"><g transform="translate(0 0)"><rect width="11.13" height="11.13" fill="#fff"/></g></g><g transform="translate(150.403 139.274)"><g transform="translate(0 0)"><rect width="11.13" height="16.695" fill="#fff"/></g></g><g transform="translate(150.403 167.098)"><g transform="translate(0 0)"><rect width="11.13" height="11.13" fill="#fff"/></g></g><g transform="translate(150.403 189.357)"><g transform="translate(0 0)"><rect width="11.13" height="11.13" fill="#fff"/></g></g><g transform="translate(172.663 122.579)"><g transform="translate(0 0)"><rect width="11.13" height="11.13" fill="#fff"/></g></g><g transform="translate(172.663 139.274)"><g transform="translate(0 0)"><rect width="11.13" height="16.695" fill="#fff"/></g></g><g transform="translate(172.663 167.098)"><g transform="translate(0 0)"><rect width="11.13" height="11.13" fill="#fff"/></g></g><g transform="translate(172.663 189.357)"><g transform="translate(0 0)"><rect width="11.13" height="11.13" fill="#fff"/></g></g><g transform="translate(194.922 122.579)"><g transform="translate(0 0)"><rect width="11.13" height="11.13" fill="#fff"/></g></g><g transform="translate(150.403 94.755)"><g transform="translate(0 0)"><rect width="11.13" height="11.13" fill="#fff"/></g></g><g transform="translate(172.663 94.755)"><g transform="translate(0 0)"><rect width="11.13" height="11.13" fill="#fff"/></g></g><g transform="translate(194.922 94.755)"><g transform="translate(0 0)"><rect width="11.13" height="11.13" fill="#fff"/></g></g><g transform="translate(194.922 139.274)"><g transform="translate(0 0)"><rect width="11.13" height="16.695" fill="#fff"/></g></g><g transform="translate(194.922 167.098)"><g transform="translate(0 0)"><rect width="11.13" height="11.13" fill="#fff"/></g></g><g transform="translate(194.922 189.357)"><g transform="translate(0 0)"><rect width="11.13" height="11.13" fill="#fff"/></g></g><g transform="translate(217.181 122.579)"><g transform="translate(0 0)"><rect width="16.695" height="11.13" fill="#fff"/></g></g><g transform="translate(217.181 139.274)"><g transform="translate(0 0)"><rect width="16.695" height="16.695" fill="#fff"/></g></g><g transform="translate(217.181 167.098)"><g transform="translate(0 0)"><rect width="16.695" height="11.13" fill="#fff"/></g></g><g transform="translate(217.181 189.357)"><g transform="translate(0 0)"><rect width="16.695" height="11.13" fill="#fff"/></g></g><path d="M350.521,89.114H261.4V5.941A5.937,5.937,0,0,0,255.466,0H101a5.937,5.937,0,0,0-5.941,5.934V89.114H5.941A5.937,5.937,0,0,0,0,95.048v213.88a5.937,5.937,0,0,0,5.934,5.941H18.36a35.652,35.652,0,0,0-.537,5.941v29.7a5.937,5.937,0,0,0,5.934,5.941H332.691a5.937,5.937,0,0,0,5.941-5.934V320.809a35.5,35.5,0,0,0-.537-5.941h12.419a5.937,5.937,0,0,0,5.941-5.934V95.055A5.937,5.937,0,0,0,350.521,89.114ZM255.459,255.459a11.882,11.882,0,1,1-11.882-11.882A11.881,11.881,0,0,1,255.459,255.459ZM112.877,243.578A11.882,11.882,0,1,1,101,255.459,11.881,11.881,0,0,1,112.877,243.578Zm-35.645,101H29.7V320.809a23.764,23.764,0,0,1,47.527,0ZM41.586,273.282a11.882,11.882,0,1,1,11.882,11.882A11.881,11.881,0,0,1,41.586,273.282Zm36.546,21.851a35.813,35.813,0,0,0-7.474-5.532,23.764,23.764,0,1,0-34.38,0,35.876,35.876,0,0,0-13.633,13.385H11.882V101H95.055V239.906a23.44,23.44,0,0,0,.633,31.873A35.747,35.747,0,0,0,78.132,295.134Zm58.509,49.44H89.114V302.987a23.764,23.764,0,0,1,47.527,0Zm71.291,0H148.523V302.987a29.7,29.7,0,1,1,59.409,0Zm-47.527-101A17.823,17.823,0,1,1,178.227,261.4,17.823,17.823,0,0,1,160.4,243.578Zm54,38.983A41.846,41.846,0,0,0,197.364,266.1a29.706,29.706,0,1,0-38.273,0,41.846,41.846,0,0,0-17.045,16.456,35.883,35.883,0,0,0-11.978-10.782,23.593,23.593,0,0,0-23.131-39.24V11.882H249.518V232.539a23.659,23.659,0,0,0-23.131,39.24A35.883,35.883,0,0,0,214.409,282.561Zm52.932,38.248v23.764H219.814V302.987a23.764,23.764,0,1,1,47.527,0Zm59.409,23.764H279.223V320.809a23.764,23.764,0,0,1,47.527,0ZM291.1,273.282a11.882,11.882,0,1,1,11.882,11.882A11.881,11.881,0,0,1,291.1,273.282Zm53.468,29.7H333.81A35.876,35.876,0,0,0,320.177,289.6a23.764,23.764,0,1,0-34.38,0,35.792,35.792,0,0,0-7.474,5.532,35.744,35.744,0,0,0-17.555-23.354,23.44,23.44,0,0,0,.633-31.873V101h83.173V302.987Z" transform="translate(0 0)" fill="#fff"/><g transform="translate(278.395 139.274)"><g transform="translate(0 0)"><rect width="11.13" height="94.603" fill="#fff"/></g></g><g transform="translate(317.349 139.274)"><g transform="translate(0 0)"><rect width="11.13" height="94.603" fill="#fff"/></g></g><g transform="translate(27.976 139.274)"><g transform="translate(0 0)"><rect width="11.13" height="94.603" fill="#fff"/></g></g><g transform="translate(66.93 139.274)"><g transform="translate(0 0)"><rect width="11.13" height="94.603" fill="#fff"/></g></g><g transform="translate(136.641 23.764)"><path d="M261.239,32h-71.3A5.937,5.937,0,0,0,184,37.934V85.468a5.937,5.937,0,0,0,5.934,5.941h71.3a5.937,5.937,0,0,0,5.941-5.934V37.941A5.937,5.937,0,0,0,261.239,32Zm-5.948,47.527H195.882V43.882h59.409Z" transform="translate(-184 -32)" fill="#fff"/></g></svg>